<svg width="200" height="60" viewBox="0 0 200 60" xmlns="http://www.w3.org/2000/svg">
  <defs>
    <linearGradient id="logoGradient" x1="0%" y1="0%" x2="100%" y2="100%">
      <stop offset="0%" style="stop-color:#0056CC;stop-opacity:1" />
      <stop offset="100%" style="stop-color:#003d99;stop-opacity:1" />
    </linearGradient>
  </defs>
  
  <g transform="translate(8, 8)">
    <rect x="0" y="0" width="8" height="36" fill="url(#logoGradient)" rx="4"/>
    <rect x="0" y="14" width="8" height="8" fill="#E63946" rx="4"/>
    <rect x="0" y="28" width="8" height="8" fill="#E63946" rx="4"/>
    
    <circle cx="4" cy="4" r="3" fill="url(#logoGradient)"/>
    <circle cx="4" cy="18" r="2.5" fill="#FFFFFF"/>
    <circle cx="4" cy="32" r="2.5" fill="#FFFFFF"/>
    
    <path d="M 8 0 L 8 36" stroke="url(#logoGradient)" stroke-width="2" stroke-linecap="round"/>
    <path d="M 8 18 L 20 18" stroke="url(#logoGradient)" stroke-width="2" stroke-linecap="round"/>
    <path d="M 8 32 L 20 32" stroke="url(#logoGradient)" stroke-width="2" stroke-linecap="round"/>
    
    <rect x="20" y="0" width="8" height="36" fill="url(#logoGradient)" rx="4"/>
    <circle cx="24" cy="4" r="3" fill="#E63946"/>
    <circle cx="24" cy="18" r="2.5" fill="#FFFFFF"/>
    <circle cx="24" cy="32" r="2.5" fill="#FFFFFF"/>
  </g>
  
  <text x="52" y="28" font-family="Arial, 'Helvetica Neue', sans-serif" font-size="24" font-weight="700" fill="#0056CC" letter-spacing="-0.5">
    <tspan fill="#E63946">T</tspan>ech<span fill="#0056CC">Hub</span>
  </text>
  
  <text x="52" y="42" font-family="Arial, 'Helvetica Neue', sans-serif" font-size="9" font-weight="400" fill="#0056CC" text-decoration="underline" letter-spacing="0.3">
    YOUR ELECTRONICS HUB
  </text>
</svg>
